<?xml version="1.0" encoding="UTF-8" standalone="no"?><!DOCTYPE svg PUBLIC "-//W3C//DTD SVG 1.1//EN" "http://www.w3.org/Graphics/SVG/1.1/DTD/svg11.dtd"><svg width="100%" height="100%" viewBox="0 0 490 107" version="1.1" xmlns="http://www.w3.org/2000/svg" xmlns:xlink="http://www.w3.org/1999/xlink" xml:space="preserve" xmlns:serif="http://www.serif.com/" style="fill-rule:evenodd;clip-rule:evenodd;stroke-linejoin:round;stroke-miterlimit:2;"><rect id="Home" x="-99.667" y="-102.354" width="1920" height="4270.67" style="fill:none;"/><g id="_delete"></g><g id="Header"><g id="Preheader"></g><g id="Nav"><g id="Logo"><path d="M376.578,10.935l8.46,-0l-0,-13.289l-8.46,0l-0,13.289Zm15.869,3.277l5.983,5.983l9.541,-9.545l-5.981,-5.981l-9.543,9.543Zm8.321,21.85l14.226,0l-0,-8.458l-14.226,-0l0,8.458Z" style="fill:#00c8ff;fill-rule:nonzero;"/><path d="M186.476,18.446c-4.02,-0 -7.764,1.16 -10.955,3.133l-0,-21.624l-9.959,-0l0,64.757l9.959,-0l-0,-25.353c-0,-6.041 4.914,-10.955 10.955,-10.955c6.041,0 10.955,4.914 10.955,10.955l0,25.353l9.957,-0l-0,-25.353c-0,-11.531 -9.38,-20.913 -20.912,-20.913m195.981,23.262c-0,-7.541 -6.136,-13.675 -13.675,-13.675c-7.541,0 -13.677,6.134 -13.677,13.675c0,7.539 6.136,13.673 13.677,13.673c7.539,0 13.675,-6.134 13.675,-13.673m-69.302,0.235c-0,-7.179 -5.839,-13.017 -13.018,-13.017c-7.175,-0 -13.017,5.838 -13.017,13.017c-0,0.702 0.072,1.388 0.182,2.061l0.108,-0c-0,0.18 -0.024,0.357 -0.028,0.535c1.208,5.937 6.467,10.42 12.755,10.42c7.179,0 13.018,-5.839 13.018,-13.016m78.416,-0.235c-0,12.567 -10.224,22.789 -22.789,22.789c-7.121,0 -13.484,-3.287 -17.667,-8.419c-3.794,5.339 -10.014,8.839 -17.047,8.839c-6.691,0 -12.643,-3.17 -16.474,-8.076c-4.216,4.935 -10.472,8.076 -17.457,8.076c-6.899,0 -13.083,-3.071 -17.296,-7.901c-3.835,4.808 -9.732,7.901 -16.345,7.901c-11.532,0 -20.913,-9.38 -20.913,-20.913l-0,-44.049l9.958,-0l-0,44.049c-0,6.041 4.914,10.955 10.955,10.955c5.688,0 10.374,-4.356 10.902,-9.908c-0.139,-1.02 -0.237,-2.051 -0.237,-3.108c0,-12.669 10.307,-22.976 22.976,-22.976c4.834,0 9.315,1.507 13.018,4.063l-0,-4.037l9.96,0l-0,25.011c-0,6.041 4.912,10.955 10.953,10.955c6.042,0 10.956,-4.914 10.956,-10.955l-0,-44.049l9.958,-0l-0,23.659c3.835,-2.933 8.61,-4.696 13.8,-4.696c12.565,-0 22.789,10.224 22.789,22.79m-244.096,0.235c-0,-7.179 -5.841,-13.017 -13.018,-13.017c-7.179,-0 -13.018,5.838 -13.018,13.017c0,7.177 5.839,13.016 13.018,13.016c7.177,0 13.018,-5.839 13.018,-13.016m9.958,0c-0,12.67 -10.308,22.974 -22.976,22.974c-12.669,0 -22.976,-10.304 -22.976,-22.974c0,-12.669 10.307,-22.976 22.976,-22.976c12.668,0 22.976,10.307 22.976,22.976m66.241,-41.988l-9.96,-0l-0,44.049c-0,11.533 9.383,20.913 20.913,20.913l0,-9.958c-6.041,0 -10.953,-4.914 -10.953,-10.955l-0,-15.9l10.953,-0l0,-9.959l-10.953,0l-0,-18.19Zm-89.217,79.921c-6.041,-0 -10.955,-4.914 -10.955,-10.956l-9.958,0c-0,11.534 9.381,20.914 20.913,20.914c11.53,-0 20.914,-9.38 20.914,-20.914l-9.96,0c-0,6.042 -4.913,10.956 -10.954,10.956m-86.171,-38.168c-0,-7.541 -6.136,-13.675 -13.677,-13.675c-6.552,0 -12.039,4.638 -13.364,10.803l0,4.959c0,0.219 -0.024,0.432 -0.031,0.65c1.27,6.233 6.795,10.936 13.395,10.936c7.541,0 13.677,-6.134 13.677,-13.673m9.114,0c-0,12.567 -10.224,22.789 -22.791,22.789c-7.036,0 -13.338,-3.21 -17.521,-8.241c-3.816,5.118 -9.895,8.452 -16.755,8.452l0,-9.958c6.04,-0 10.956,-4.914 10.956,-10.955l-0,-44.051l9.956,-0l0,23.544c3.761,-2.735 8.37,-4.37 13.364,-4.37c12.567,-0 22.791,10.224 22.791,22.79m6.805,-2.205l-0,25.627l9.958,0l0,-25.627c0,-6.039 4.914,-10.953 10.955,-10.953l0,-9.96c-11.531,-0 -20.913,9.383 -20.913,20.913m30.347,-27.052l9.958,-0l-0,-9.166l-9.958,0l-0,9.166Zm-0,7.017l9.958,0l-0,45.244l-9.958,-0l-0,-45.244Z" style="fill:#474163;fill-rule:nonzero;"/><path d="M483.573,86.679c2.115,-0 3.807,0.552 5.071,1.654c0.362,0.309 0.371,0.669 0.028,1.086l-0.868,1.029c-0.307,0.362 -0.714,0.39 -1.22,0.083c-1.049,-0.742 -2.08,-1.112 -3.092,-1.112c-0.58,-0 -1.048,0.113 -1.41,0.338c-0.362,0.226 -0.544,0.503 -0.544,0.827c-0,0.635 0.552,1.05 1.655,1.247l2.142,0.409c2.659,0.506 3.989,1.808 3.989,3.905c-0,1.266 -0.544,2.309 -1.628,3.133c-1.085,0.823 -2.487,1.233 -4.204,1.233c-1.971,0 -3.634,-0.514 -4.991,-1.546c-0.922,-0.686 -1.057,-1.292 -0.407,-1.817l1.004,-0.813c0.379,-0.307 0.787,-0.281 1.222,0.081c1.029,0.904 2.141,1.355 3.335,1.355c0.667,0 1.182,-0.125 1.544,-0.379c0.362,-0.252 0.544,-0.561 0.544,-0.921c0,-0.362 -0.163,-0.633 -0.489,-0.815c-0.324,-0.18 -0.86,-0.342 -1.599,-0.488l-2.09,-0.434c-1.084,-0.216 -1.944,-0.659 -2.575,-1.329c-0.633,-0.668 -0.951,-1.519 -0.951,-2.548c0,-1.194 0.512,-2.188 1.534,-2.984c1.021,-0.796 2.354,-1.194 4,-1.194m-8.15,0.216l0.381,-0c0.415,-0 0.622,0.228 0.622,0.679l0,2.332c0,0.237 -0.072,0.409 -0.217,0.517c-0.145,0.108 -0.289,0.161 -0.433,0.161l-0.652,-0c-1.825,-0 -2.74,1.05 -2.74,3.147l0,5.886c0,0.145 -0.058,0.266 -0.175,0.366c-0.117,0.099 -0.25,0.149 -0.395,0.149l-2.385,0c-0.145,0 -0.271,-0.055 -0.38,-0.163c-0.108,-0.108 -0.163,-0.235 -0.163,-0.379l-0,-11.962c-0,-0.163 0.055,-0.299 0.163,-0.407c0.109,-0.108 0.235,-0.161 0.38,-0.161l2.25,-0c0.144,-0 0.273,0.053 0.381,0.161c0.11,0.108 0.163,0.226 0.163,0.353l-0,1.248c0.739,-1.284 1.806,-1.927 3.2,-1.927m-18.416,4.097c-0.671,0.705 -1.003,1.574 -1.003,2.603c-0,1.031 0.332,1.899 1.003,2.605c0.668,0.703 1.5,1.057 2.495,1.057c0.993,-0 1.826,-0.354 2.495,-1.057c0.667,-0.706 1.003,-1.574 1.003,-2.605c0,-1.029 -0.336,-1.898 -1.003,-2.603c-0.669,-0.705 -1.502,-1.058 -2.495,-1.058c-0.995,-0 -1.827,0.353 -2.495,1.058m-4.531,2.631c-0,-1.953 0.683,-3.598 2.047,-4.937c1.366,-1.338 3.025,-2.007 4.979,-2.007c1.951,-0 3.61,0.669 4.976,2.007c1.366,1.339 2.047,2.984 2.047,4.937c-0,1.935 -0.681,3.565 -2.047,4.895c-1.366,1.329 -3.025,1.993 -4.976,1.993c-1.954,0 -3.613,-0.664 -4.979,-1.993c-1.364,-1.33 -2.047,-2.96 -2.047,-4.895m-9.006,2.657l-0,-6.291l-1.79,-0c-0.146,-0 -0.271,-0.059 -0.381,-0.177c-0.108,-0.119 -0.161,-0.249 -0.161,-0.393l0,-1.791c0,-0.163 0.053,-0.299 0.161,-0.407c0.11,-0.108 0.235,-0.161 0.381,-0.161l1.79,-0l-0,-3.636c-0,-0.163 0.055,-0.299 0.163,-0.407c0.108,-0.108 0.243,-0.163 0.406,-0.163l2.389,0c0.144,0 0.269,0.055 0.377,0.163c0.11,0.108 0.163,0.244 0.163,0.407l0,3.636l3.799,-0c0.144,-0 0.275,0.053 0.391,0.161c0.119,0.108 0.177,0.244 0.177,0.407l-0,1.791c-0,0.144 -0.058,0.274 -0.177,0.393c-0.116,0.118 -0.247,0.177 -0.391,0.177l-3.799,-0l0,5.505c0,0.596 0.155,1.026 0.464,1.289c0.305,0.262 0.648,0.393 1.029,0.393c0.415,-0 0.832,-0.136 1.247,-0.407c0.471,-0.271 0.822,-0.235 1.059,0.108l0.813,1.328c0.216,0.326 0.189,0.625 -0.08,0.896c-0.869,0.868 -2.099,1.302 -3.691,1.302c-1.211,0 -2.236,-0.343 -3.078,-1.031c-0.841,-0.686 -1.261,-1.717 -1.261,-3.092m-13.574,-5.288c-0.679,0.705 -1.017,1.574 -1.017,2.603c-0,1.031 0.338,1.905 1.017,2.618c0.678,0.714 1.515,1.071 2.509,1.071c0.993,-0 1.825,-0.357 2.495,-1.071c0.667,-0.713 1.003,-1.587 1.003,-2.618c0,-1.029 -0.336,-1.898 -1.003,-2.603c-0.67,-0.705 -1.502,-1.058 -2.495,-1.058c-0.994,-0 -1.831,0.353 -2.509,1.058m-2.604,7.581c-1.294,-1.292 -1.941,-2.96 -1.941,-5.005c0,-2.042 0.647,-3.703 1.941,-4.976c1.292,-1.275 2.834,-1.913 4.626,-1.913c0.902,-0 1.708,0.185 2.412,0.556c0.705,0.372 1.23,0.846 1.573,1.424l0,-1.031c0,-0.163 0.055,-0.299 0.163,-0.407c0.108,-0.108 0.235,-0.161 0.379,-0.161l2.387,-0c0.146,-0 0.271,0.053 0.379,0.161c0.11,0.108 0.163,0.244 0.163,0.407l0,11.962c0,0.144 -0.053,0.271 -0.163,0.379c-0.108,0.108 -0.233,0.163 -0.379,0.163l-2.387,0c-0.144,0 -0.271,-0.055 -0.379,-0.163c-0.108,-0.108 -0.163,-0.235 -0.163,-0.379l0,-1.059c-0.343,0.597 -0.871,1.076 -1.587,1.438c-0.714,0.362 -1.523,0.542 -2.426,0.542c-1.772,0 -3.306,-0.645 -4.598,-1.938m-7.665,1.559l-3.471,0c-0.362,0 -0.607,-0.19 -0.732,-0.569l-4.151,-11.664c-0.089,-0.216 -0.082,-0.41 0.028,-0.582c0.108,-0.173 0.271,-0.257 0.489,-0.257l2.63,-0c0.326,-0 0.553,0.18 0.678,0.542l2.956,8.977l2.713,-8.977c0.089,-0.362 0.315,-0.542 0.677,-0.542l2.495,-0c0.218,-0 0.381,0.084 0.489,0.257c0.11,0.172 0.127,0.366 0.055,0.582l-4.149,11.664c-0.128,0.379 -0.362,0.569 -0.707,0.569m-18.683,-9.14c-0.67,0.705 -1.003,1.574 -1.003,2.603c-0,1.031 0.333,1.899 1.003,2.605c0.668,0.703 1.5,1.057 2.495,1.057c0.994,-0 1.826,-0.354 2.495,-1.057c0.669,-0.706 1.004,-1.574 1.004,-2.605c-0,-1.029 -0.335,-1.898 -1.004,-2.603c-0.669,-0.705 -1.501,-1.058 -2.495,-1.058c-0.995,-0 -1.827,0.353 -2.495,1.058m-4.531,2.631c0,-1.953 0.685,-3.598 2.049,-4.937c1.364,-1.338 3.023,-2.007 4.977,-2.007c1.953,-0 3.61,0.669 4.976,2.007c1.366,1.339 2.049,2.984 2.049,4.937c-0,1.935 -0.683,3.565 -2.049,4.895c-1.366,1.329 -3.023,1.993 -4.976,1.993c-1.954,0 -3.613,-0.664 -4.977,-1.993c-1.364,-1.33 -2.049,-2.96 -2.049,-4.895m-5.7,5.994l0,-6.32c0,-1.049 -0.281,-1.876 -0.84,-2.481c-0.562,-0.606 -1.34,-0.91 -2.334,-0.91c-0.995,0 -1.791,0.312 -2.387,0.937c-0.597,0.623 -0.895,1.441 -0.895,2.454l-0,6.32c-0,0.145 -0.059,0.266 -0.175,0.366c-0.119,0.099 -0.251,0.149 -0.395,0.149l-2.385,0c-0.146,0 -0.273,-0.055 -0.381,-0.163c-0.109,-0.108 -0.163,-0.235 -0.163,-0.379l0,-11.962c0,-0.163 0.054,-0.299 0.163,-0.407c0.108,-0.108 0.235,-0.161 0.381,-0.161l2.385,-0c0.144,-0 0.276,0.053 0.395,0.161c0.116,0.108 0.175,0.226 0.175,0.353l-0,1.032c0.921,-1.284 2.369,-1.927 4.339,-1.927c1.7,-0 3.061,0.533 4.082,1.601c1.022,1.067 1.534,2.422 1.534,4.068l-0,7.269c-0,0.145 -0.059,0.266 -0.177,0.366c-0.118,0.099 -0.249,0.149 -0.393,0.149l-2.359,0c-0.146,0 -0.276,-0.05 -0.395,-0.149c-0.116,-0.1 -0.175,-0.221 -0.175,-0.366m-16.404,0l-0,-6.32c-0,-1.049 -0.282,-1.876 -0.841,-2.481c-0.561,-0.606 -1.338,-0.91 -2.332,-0.91c-0.995,0 -1.791,0.312 -2.388,0.937c-0.597,0.623 -0.894,1.441 -0.894,2.454l0,6.32c0,0.145 -0.06,0.266 -0.177,0.366c-0.116,0.099 -0.248,0.149 -0.393,0.149l-2.386,0c-0.146,0 -0.271,-0.055 -0.381,-0.163c-0.108,-0.108 -0.161,-0.235 -0.161,-0.379l-0,-11.962c-0,-0.163 0.053,-0.299 0.161,-0.407c0.11,-0.108 0.235,-0.161 0.381,-0.161l2.386,-0c0.145,-0 0.277,0.053 0.393,0.161c0.117,0.108 0.177,0.226 0.177,0.353l0,1.032c0.921,-1.284 2.37,-1.927 4.339,-1.927c1.699,-0 3.059,0.533 4.082,1.601c1.023,1.067 1.532,2.422 1.532,4.068l0,7.269c0,0.145 -0.058,0.266 -0.175,0.366c-0.118,0.099 -0.25,0.149 -0.394,0.149l-2.36,0c-0.145,0 -0.276,-0.05 -0.393,-0.149c-0.116,-0.1 -0.176,-0.221 -0.176,-0.366m-13.596,0.515l-2.359,0c-0.163,0 -0.299,-0.058 -0.409,-0.177c-0.108,-0.118 -0.161,-0.248 -0.161,-0.392l0,-11.935c0,-0.163 0.053,-0.299 0.161,-0.407c0.11,-0.108 0.246,-0.161 0.409,-0.161l2.359,-0c0.161,-0 0.297,0.053 0.407,0.161c0.108,0.108 0.163,0.244 0.163,0.407l-0,11.935c-0,0.144 -0.055,0.274 -0.163,0.392c-0.11,0.119 -0.246,0.177 -0.407,0.177m-1.167,-14.781c-0.616,-0 -1.134,-0.218 -1.559,-0.652c-0.424,-0.434 -0.637,-0.949 -0.637,-1.546c0,-0.595 0.213,-1.112 0.637,-1.546c0.425,-0.434 0.943,-0.65 1.559,-0.65c0.597,-0 1.107,0.216 1.532,0.65c0.424,0.434 0.639,0.951 0.639,1.546c-0,0.597 -0.215,1.112 -0.639,1.546c-0.425,0.434 -0.935,0.652 -1.532,0.652m-13.481,6.889c-0.161,-0.869 -0.54,-1.543 -1.139,-2.022c-0.595,-0.478 -1.283,-0.718 -2.061,-0.718c-0.796,-0 -1.487,0.248 -2.074,0.746c-0.588,0.497 -0.971,1.161 -1.153,1.994l6.427,-0Zm-3.225,-5.561c1.969,-0 3.575,0.643 4.813,1.927c1.238,1.283 1.858,2.82 1.858,4.61l-0,0.65c-0,0.398 -0.208,0.597 -0.623,0.597l-9.332,0c0.091,0.904 0.463,1.641 1.113,2.21c0.652,0.57 1.419,0.855 2.306,0.855c1.229,-0 2.25,-0.46 3.065,-1.383c0.235,-0.271 0.47,-0.316 0.705,-0.136l1.709,1.194c0.307,0.217 0.343,0.479 0.108,0.786c-1.32,1.682 -3.21,2.522 -5.669,2.522c-2.025,0 -3.689,-0.655 -4.99,-1.966c-1.302,-1.311 -1.954,-2.942 -1.954,-4.895c0,-1.953 0.652,-3.603 1.954,-4.95c1.301,-1.347 2.946,-2.021 4.937,-2.021m-9.097,0.216l0.379,-0c0.417,-0 0.624,0.228 0.624,0.679l0,2.332c0,0.237 -0.072,0.409 -0.217,0.517c-0.145,0.108 -0.289,0.161 -0.433,0.161l-0.652,-0c-1.825,-0 -2.74,1.05 -2.74,3.147l0,5.886c0,0.145 -0.058,0.266 -0.175,0.366c-0.118,0.099 -0.25,0.149 -0.395,0.149l-2.384,0c-0.146,0 -0.273,-0.055 -0.381,-0.163c-0.11,-0.108 -0.163,-0.235 -0.163,-0.379l-0,-11.962c-0,-0.163 0.053,-0.299 0.163,-0.407c0.108,-0.108 0.235,-0.161 0.381,-0.161l2.249,-0c0.144,-0 0.271,0.053 0.381,0.161c0.108,0.108 0.163,0.226 0.163,0.353l-0,1.248c0.739,-1.284 1.807,-1.927 3.2,-1.927m-19.04,0.679l-0,6.781c-0,0.976 0.249,1.749 0.746,2.318c0.498,0.57 1.225,0.855 2.183,0.855c0.94,-0 1.678,-0.289 2.211,-0.869c0.534,-0.578 0.8,-1.328 0.8,-2.251l-0,-6.834c-0,-0.127 0.055,-0.245 0.163,-0.353c0.108,-0.108 0.233,-0.161 0.379,-0.161l2.387,-0c0.163,-0 0.298,0.053 0.406,0.161c0.11,0.108 0.163,0.244 0.163,0.407l0,11.962c0,0.144 -0.053,0.271 -0.163,0.379c-0.108,0.108 -0.243,0.163 -0.406,0.163l-2.387,0c-0.146,0 -0.271,-0.05 -0.379,-0.149c-0.108,-0.1 -0.163,-0.221 -0.163,-0.366l-0,-1.031c-0.94,1.284 -2.296,1.925 -4.068,1.925c-1.646,0 -2.953,-0.509 -3.919,-1.532c-0.968,-1.021 -1.452,-2.364 -1.452,-4.027l0,-7.378c0,-0.127 0.059,-0.245 0.177,-0.353c0.117,-0.108 0.247,-0.161 0.393,-0.161l2.359,-0c0.144,-0 0.276,0.053 0.395,0.161c0.116,0.108 0.175,0.226 0.175,0.353m-13.253,8.706l0,-6.291l-1.788,-0c-0.146,-0 -0.272,-0.059 -0.381,-0.177c-0.109,-0.119 -0.163,-0.249 -0.163,-0.393l0,-1.791c0,-0.163 0.054,-0.299 0.163,-0.407c0.109,-0.108 0.235,-0.161 0.381,-0.161l1.788,-0l0,-3.636c0,-0.163 0.057,-0.299 0.163,-0.407c0.11,-0.108 0.246,-0.163 0.409,-0.163l2.386,0c0.144,0 0.27,0.055 0.379,0.163c0.108,0.108 0.163,0.244 0.163,0.407l0,3.636l3.797,-0c0.144,-0 0.277,0.053 0.393,0.161c0.117,0.108 0.175,0.244 0.175,0.407l0,1.791c0,0.144 -0.058,0.274 -0.175,0.393c-0.116,0.118 -0.249,0.177 -0.393,0.177l-3.797,-0l0,5.505c0,0.596 0.153,1.026 0.462,1.289c0.307,0.262 0.65,0.393 1.031,0.393c0.415,-0 0.831,-0.136 1.246,-0.407c0.472,-0.271 0.823,-0.235 1.058,0.108l0.814,1.328c0.218,0.326 0.188,0.625 -0.081,0.896c-0.868,0.868 -2.097,1.302 -3.689,1.302c-1.211,0 -2.237,-0.343 -3.078,-1.031c-0.841,-0.686 -1.263,-1.717 -1.263,-3.092m-13.546,-8.706l0,6.781c0,0.976 0.249,1.749 0.747,2.318c0.497,0.57 1.223,0.855 2.182,0.855c0.94,-0 1.678,-0.289 2.212,-0.869c0.533,-0.578 0.799,-1.328 0.799,-2.251l0,-6.834c0,-0.127 0.055,-0.245 0.163,-0.353c0.108,-0.108 0.233,-0.161 0.379,-0.161l2.387,-0c0.163,-0 0.299,0.053 0.407,0.161c0.109,0.108 0.163,0.244 0.163,0.407l-0,11.962c-0,0.144 -0.054,0.271 -0.163,0.379c-0.108,0.108 -0.244,0.163 -0.407,0.163l-2.387,0c-0.146,0 -0.271,-0.05 -0.379,-0.149c-0.108,-0.1 -0.163,-0.221 -0.163,-0.366l0,-1.031c-0.94,1.284 -2.296,1.925 -4.068,1.925c-1.645,0 -2.953,-0.509 -3.919,-1.532c-0.967,-1.021 -1.451,-2.364 -1.451,-4.027l-0,-7.378c-0,-0.127 0.058,-0.245 0.175,-0.353c0.118,-0.108 0.248,-0.161 0.394,-0.161l2.36,-0c0.144,-0 0.276,0.053 0.392,0.161c0.119,0.108 0.177,0.226 0.177,0.353m-13.628,-0.514l1.762,-0l-0,-2.063c-0,-1.499 0.458,-2.64 1.371,-3.417c0.913,-0.778 2.002,-1.165 3.267,-1.165c1.482,-0 2.686,0.415 3.608,1.247c0.271,0.254 0.29,0.559 0.055,0.921l-1.033,1.411c-0.233,0.362 -0.578,0.381 -1.03,0.055c-0.434,-0.29 -0.857,-0.435 -1.273,-0.435c-0.418,0 -0.765,0.145 -1.046,0.435c-0.28,0.289 -0.421,0.705 -0.421,1.247l0,1.764l2.577,-0c0.145,-0 0.277,0.053 0.393,0.161c0.119,0.108 0.177,0.244 0.177,0.407l0,1.791c0,0.144 -0.058,0.274 -0.177,0.393c-0.116,0.118 -0.248,0.177 -0.393,0.177l-2.577,-0l0,9.574c0,0.144 -0.053,0.274 -0.163,0.392c-0.106,0.119 -0.233,0.177 -0.377,0.177l-2.389,0c-0.144,0 -0.274,-0.058 -0.392,-0.177c-0.119,-0.118 -0.177,-0.248 -0.177,-0.392l-0,-9.574l-1.762,-0c-0.163,-0 -0.299,-0.059 -0.409,-0.177c-0.106,-0.119 -0.161,-0.249 -0.161,-0.393l0,-1.791c0,-0.163 0.055,-0.299 0.161,-0.407c0.11,-0.108 0.246,-0.161 0.409,-0.161m-19.231,6.454c0,1.03 0.335,1.89 1.004,2.576c0.668,0.688 1.501,1.031 2.495,1.031c0.993,-0 1.825,-0.343 2.495,-1.031c0.667,-0.686 1.003,-1.546 1.003,-2.576c0,-1.012 -0.336,-1.866 -1.003,-2.563c-0.67,-0.697 -1.502,-1.045 -2.495,-1.045c-0.994,0 -1.827,0.348 -2.495,1.045c-0.669,0.697 -1.004,1.551 -1.004,2.563m3.554,9.846c1.118,-0 1.978,-0.296 2.575,-0.882c0.597,-0.587 0.894,-1.38 0.894,-2.373l0,-1.737c-0.343,0.543 -0.868,0.99 -1.572,1.344c-0.705,0.352 -1.501,0.528 -2.386,0.528c-1.845,0 -3.404,-0.614 -4.679,-1.844c-1.275,-1.229 -1.912,-2.866 -1.912,-4.909c0,-2.025 0.632,-3.665 1.898,-4.923c1.266,-1.256 2.783,-1.885 4.557,-1.885c0.904,-0 1.726,0.185 2.467,0.556c0.743,0.372 1.284,0.854 1.627,1.451l0,-1.058c0,-0.145 0.057,-0.27 0.165,-0.38c0.108,-0.108 0.235,-0.163 0.379,-0.163l2.359,0c0.163,0 0.3,0.055 0.407,0.163c0.11,0.11 0.163,0.235 0.163,0.38l-0,12.585c-0,1.844 -0.632,3.332 -1.9,4.463c-1.264,1.129 -2.973,1.695 -5.125,1.695c-1.736,-0 -3.196,-0.367 -4.38,-1.1c-1.184,-0.731 -1.93,-1.712 -2.237,-2.943c-0.072,-0.307 0.017,-0.487 0.271,-0.542l2.524,-0.678c0.305,-0.054 0.513,0.028 0.622,0.244c0.145,0.542 0.498,1.012 1.057,1.41c0.561,0.399 1.303,0.598 2.226,0.598m-12.855,-3.743l0,-6.32c0,-1.049 -0.281,-1.876 -0.842,-2.481c-0.561,-0.606 -1.339,-0.91 -2.332,-0.91c-0.995,0 -1.791,0.312 -2.388,0.937c-0.596,0.623 -0.894,1.441 -0.894,2.454l-0,6.32c-0,0.145 -0.059,0.266 -0.177,0.366c-0.117,0.099 -0.249,0.149 -0.393,0.149l-2.387,0c-0.145,0 -0.271,-0.055 -0.379,-0.163c-0.11,-0.108 -0.163,-0.235 -0.163,-0.379l0,-11.962c0,-0.163 0.053,-0.299 0.163,-0.407c0.108,-0.108 0.234,-0.161 0.379,-0.161l2.387,-0c0.144,-0 0.276,0.053 0.393,0.161c0.118,0.108 0.177,0.226 0.177,0.353l-0,1.032c0.921,-1.284 2.369,-1.927 4.339,-1.927c1.7,-0 3.061,0.533 4.082,1.601c1.022,1.067 1.534,2.422 1.534,4.068l-0,7.269c-0,0.145 -0.059,0.266 -0.177,0.366c-0.118,0.099 -0.249,0.149 -0.393,0.149l-2.359,0c-0.146,0 -0.276,-0.05 -0.395,-0.149c-0.117,-0.1 -0.175,-0.221 -0.175,-0.366m-13.597,0.515l-2.36,0c-0.163,0 -0.298,-0.058 -0.406,-0.177c-0.11,-0.118 -0.163,-0.248 -0.163,-0.392l-0,-11.935c-0,-0.163 0.053,-0.299 0.163,-0.407c0.108,-0.108 0.243,-0.161 0.406,-0.161l2.36,-0c0.163,-0 0.298,0.053 0.406,0.161c0.11,0.108 0.163,0.244 0.163,0.407l0,11.935c0,0.144 -0.053,0.274 -0.163,0.392c-0.108,0.119 -0.243,0.177 -0.406,0.177m-1.167,-14.781c-0.614,-0 -1.134,-0.218 -1.56,-0.652c-0.423,-0.434 -0.636,-0.949 -0.636,-1.546c-0,-0.595 0.213,-1.112 0.636,-1.546c0.426,-0.434 0.946,-0.65 1.56,-0.65c0.597,-0 1.108,0.216 1.534,0.65c0.424,0.434 0.636,0.951 0.636,1.546c0,0.597 -0.212,1.112 -0.636,1.546c-0.426,0.434 -0.937,0.652 -1.534,0.652m-13.654,5.641c-0.678,0.705 -1.018,1.574 -1.018,2.603c0,1.031 0.34,1.905 1.018,2.618c0.679,0.714 1.515,1.071 2.508,1.071c0.995,-0 1.828,-0.357 2.495,-1.071c0.671,-0.713 1.004,-1.587 1.004,-2.618c-0,-1.029 -0.333,-1.898 -1.004,-2.603c-0.667,-0.705 -1.5,-1.058 -2.495,-1.058c-0.993,-0 -1.829,0.353 -2.508,1.058m-1.043,-2.333c0.396,-0.597 0.957,-1.076 1.679,-1.438c0.724,-0.362 1.538,-0.542 2.442,-0.542c1.772,-0 3.291,0.643 4.557,1.927c1.266,1.283 1.899,2.937 1.899,4.962c0,2.045 -0.633,3.713 -1.899,5.005c-1.266,1.293 -2.802,1.938 -4.61,1.938c-0.815,0 -1.593,-0.163 -2.332,-0.487c-0.743,-0.326 -1.302,-0.777 -1.683,-1.357l-0,6.753c-0,0.144 -0.053,0.273 -0.163,0.381c-0.108,0.108 -0.234,0.161 -0.379,0.161l-2.414,0c-0.146,0 -0.272,-0.053 -0.38,-0.161c-0.109,-0.108 -0.163,-0.237 -0.163,-0.381l0,-17.792c0,-0.163 0.054,-0.299 0.163,-0.407c0.108,-0.108 0.234,-0.161 0.38,-0.161l2.359,-0c0.144,-0 0.273,0.053 0.381,0.161c0.108,0.108 0.163,0.244 0.163,0.407l-0,1.031Zm-15.976,2.333c-0.678,0.705 -1.017,1.574 -1.017,2.603c-0,1.031 0.339,1.905 1.017,2.618c0.68,0.714 1.515,1.071 2.509,1.071c0.993,-0 1.827,-0.357 2.494,-1.071c0.669,-0.713 1.004,-1.587 1.004,-2.618c-0,-1.029 -0.335,-1.898 -1.004,-2.603c-0.667,-0.705 -1.501,-1.058 -2.494,-1.058c-0.994,-0 -1.829,0.353 -2.509,1.058m-2.603,7.581c-1.293,-1.292 -1.94,-2.96 -1.94,-5.005c-0,-2.042 0.647,-3.703 1.94,-4.976c1.292,-1.275 2.833,-1.913 4.624,-1.913c0.903,-0 1.709,0.185 2.413,0.556c0.705,0.372 1.23,0.846 1.573,1.424l-0,-1.031c-0,-0.163 0.055,-0.299 0.163,-0.407c0.108,-0.108 0.237,-0.161 0.381,-0.161l2.385,-0c0.146,-0 0.271,0.053 0.381,0.161c0.108,0.108 0.163,0.244 0.163,0.407l-0,11.962c-0,0.144 -0.055,0.271 -0.163,0.379c-0.11,0.108 -0.235,0.163 -0.381,0.163l-2.385,0c-0.144,0 -0.273,-0.055 -0.381,-0.163c-0.108,-0.108 -0.163,-0.235 -0.163,-0.379l-0,-1.059c-0.343,0.597 -0.872,1.076 -1.587,1.438c-0.714,0.362 -1.522,0.542 -2.426,0.542c-1.773,0 -3.305,-0.645 -4.597,-1.938m-7.704,1.044l0,-6.32c0,-1.049 -0.281,-1.876 -0.84,-2.481c-0.561,-0.606 -1.339,-0.91 -2.332,-0.91c-0.995,0 -1.791,0.312 -2.388,0.937c-0.596,0.623 -0.894,1.441 -0.894,2.454l-0,6.32c-0,0.145 -0.059,0.266 -0.177,0.366c-0.117,0.099 -0.249,0.149 -0.393,0.149l-2.387,0c-0.145,0 -0.271,-0.055 -0.381,-0.163c-0.108,-0.108 -0.161,-0.235 -0.161,-0.379l0,-17.901c0,-0.146 0.053,-0.271 0.161,-0.381c0.11,-0.108 0.236,-0.163 0.381,-0.163l2.387,0c0.144,0 0.276,0.052 0.393,0.15c0.118,0.099 0.177,0.223 0.177,0.367l-0,6.944c0.921,-1.284 2.369,-1.927 4.339,-1.927c1.698,-0 3.059,0.533 4.082,1.601c1.022,1.067 1.532,2.422 1.532,4.068l-0,7.269c-0,0.145 -0.058,0.266 -0.175,0.366c-0.119,0.099 -0.251,0.149 -0.395,0.149l-2.359,0c-0.146,0 -0.276,-0.05 -0.393,-0.149c-0.117,-0.1 -0.177,-0.221 -0.177,-0.366m-18.038,-12.938c2.116,-0 3.808,0.552 5.072,1.654c0.362,0.309 0.371,0.669 0.026,1.086l-0.866,1.029c-0.308,0.362 -0.714,0.39 -1.22,0.083c-1.05,-0.742 -2.08,-1.112 -3.092,-1.112c-0.58,-0 -1.048,0.113 -1.411,0.338c-0.362,0.226 -0.543,0.503 -0.543,0.827c-0,0.635 0.55,1.05 1.655,1.247l2.142,0.409c2.659,0.506 3.987,1.808 3.987,3.905c0,1.266 -0.542,2.309 -1.627,3.133c-1.086,0.823 -2.486,1.233 -4.203,1.233c-1.973,0 -3.634,-0.514 -4.991,-1.546c-0.922,-0.686 -1.059,-1.292 -0.409,-1.817l1.004,-0.813c0.381,-0.307 0.788,-0.281 1.222,0.081c1.031,0.904 2.141,1.355 3.337,1.355c0.667,0 1.182,-0.125 1.544,-0.379c0.362,-0.252 0.542,-0.561 0.542,-0.921c0,-0.362 -0.161,-0.633 -0.487,-0.815c-0.324,-0.18 -0.86,-0.342 -1.599,-0.488l-2.09,-0.434c-1.084,-0.216 -1.944,-0.659 -2.575,-1.329c-0.633,-0.668 -0.951,-1.519 -0.951,-2.548c0,-1.194 0.511,-2.188 1.534,-2.984c1.019,-0.796 2.354,-1.194 3.999,-1.194" style="fill:#00c8ff;fill-rule:nonzero;"/></g><g id="Main"></g></g></g><g id="Hero-Group" serif:id="Hero Group"></g><g id="Actualiteit-ALT" serif:id="Actualiteit ALT"></g><g id="In-de-kijker" serif:id="In de kijker"></g><g id="In-de-kijker1" serif:id="In de kijker"></g><g id="Footer-group" serif:id="Footer group"></g></svg>